<svg width="67" height="37" viewBox="0 0 67 37" fill="none" xmlns="http://www.w3.org/2000/svg">
<path d="M7.06495 13.126C6.14095 13.126 5.31295 12.976 4.58095 12.676C3.84895 12.376 3.26095 11.932 2.81695 11.344C2.38495 10.756 2.15695 10.048 2.13295 9.22H5.40895C5.45695 9.688 5.61895 10.048 5.89495 10.3C6.17095 10.54 6.53095 10.66 6.97495 10.66C7.43095 10.66 7.79095 10.558 8.05495 10.354C8.31895 10.138 8.45095 9.844 8.45095 9.472C8.45095 9.16 8.34295 8.902 8.12695 8.698C7.92295 8.494 7.66495 8.326 7.35295 8.194C7.05295 8.062 6.62095 7.912 6.05695 7.744C5.24095 7.492 4.57495 7.24 4.05895 6.988C3.54295 6.736 3.09895 6.364 2.72695 5.872C2.35495 5.38 2.16895 4.738 2.16895 3.946C2.16895 2.77 2.59495 1.852 3.44695 1.192C4.29895 0.52 5.40895 0.184 6.77695 0.184C8.16895 0.184 9.29095 0.52 10.143 1.192C10.995 1.852 11.451 2.776 11.511 3.964H8.18095C8.15695 3.556 8.00695 3.238 7.73095 3.01C7.45495 2.77 7.10095 2.65 6.66895 2.65C6.29695 2.65 5.99695 2.752 5.76895 2.956C5.54095 3.148 5.42695 3.43 5.42695 3.802C5.42695 4.21 5.61895 4.528 6.00295 4.756C6.38695 4.984 6.98695 5.23 7.80295 5.494C8.61895 5.77 9.27895 6.034 9.78295 6.286C10.299 6.538 10.743 6.904 11.115 7.384C11.487 7.864 11.673 8.482 11.673 9.238C11.673 9.958 11.487 10.612 11.115 11.2C10.755 11.788 10.227 12.256 9.53095 12.604C8.83495 12.952 8.01295 13.126 7.06495 13.126ZM27.8772 0.364V13H24.7992V5.422L21.9732 13H19.4892L16.6452 5.404V13H13.5672V0.364H17.2032L20.7492 9.112L24.2592 0.364H27.8772ZM37.9566 10.768H33.2406L32.4846 13H29.2626L33.8346 0.364H37.3986L41.9706 13H38.7126L37.9566 10.768ZM37.1646 8.392L35.5986 3.766L34.0506 8.392H37.1646ZM49.8061 13L47.1781 8.23H46.4401V13H43.3621V0.364H48.5281C49.5241 0.364 50.3701 0.538 51.0661 0.885999C51.7741 1.234 52.3021 1.714 52.6501 2.326C52.9981 2.926 53.1721 3.598 53.1721 4.342C53.1721 5.182 52.9321 5.932 52.4521 6.592C51.9841 7.252 51.2881 7.72 50.3641 7.996L53.2801 13H49.8061ZM46.4401 6.052H48.3481C48.9121 6.052 49.3321 5.914 49.6081 5.638C49.8961 5.362 50.0401 4.972 50.0401 4.468C50.0401 3.988 49.8961 3.61 49.6081 3.334C49.3321 3.058 48.9121 2.92 48.3481 2.92H46.4401V6.052ZM64.1943 0.364V2.83H60.8463V13H57.7683V2.83H54.4203V0.364H64.1943ZM5.14894 34.126C4.22494 34.126 3.39694 33.976 2.66494 33.676C1.93294 33.376 1.34494 32.932 0.900938 32.344C0.468938 31.756 0.240938 31.048 0.216938 30.22H3.49294C3.54094 30.688 3.70294 31.048 3.97894 31.3C4.25494 31.54 4.61494 31.66 5.05894 31.66C5.51494 31.66 5.87494 31.558 6.13894 31.354C6.40294 31.138 6.53494 30.844 6.53494 30.472C6.53494 30.16 6.42694 29.902 6.21094 29.698C6.00694 29.494 5.74894 29.326 5.43694 29.194C5.13694 29.062 4.70494 28.912 4.14094 28.744C3.32494 28.492 2.65894 28.24 2.14294 27.988C1.62694 27.736 1.18294 27.364 0.810938 26.872C0.438938 26.38 0.252938 25.738 0.252938 24.946C0.252938 23.77 0.678938 22.852 1.53094 22.192C2.38294 21.52 3.49294 21.184 4.86094 21.184C6.25294 21.184 7.37494 21.52 8.22694 22.192C9.07894 22.852 9.53494 23.776 9.59494 24.964H6.26494C6.24094 24.556 6.09094 24.238 5.81494 24.01C5.53894 23.77 5.18494 23.65 4.75294 23.65C4.38094 23.65 4.08094 23.752 3.85294 23.956C3.62494 24.148 3.51094 24.43 3.51094 24.802C3.51094 25.21 3.70294 25.528 4.08694 25.756C4.47094 25.984 5.07094 26.23 5.88694 26.494C6.70294 26.77 7.36294 27.034 7.86694 27.286C8.38294 27.538 8.82694 27.904 9.19894 28.384C9.57094 28.864 9.75694 29.482 9.75694 30.238C9.75694 30.958 9.57094 31.612 9.19894 32.2C8.83894 32.788 8.31094 33.256 7.61494 33.604C6.91894 33.952 6.09694 34.126 5.14894 34.126ZM20.6512 36.16L19.0312 33.982C18.5512 34.078 18.0832 34.126 17.6272 34.126C16.4392 34.126 15.3472 33.85 14.3512 33.298C13.3672 32.746 12.5812 31.978 11.9932 30.994C11.4172 29.998 11.1292 28.882 11.1292 27.646C11.1292 26.41 11.4172 25.3 11.9932 24.316C12.5812 23.332 13.3672 22.564 14.3512 22.012C15.3472 21.46 16.4392 21.184 17.6272 21.184C18.8152 21.184 19.9012 21.46 20.8852 22.012C21.8812 22.564 22.6612 23.332 23.2252 24.316C23.8012 25.3 24.0892 26.41 24.0892 27.646C24.0892 28.726 23.8672 29.716 23.4232 30.616C22.9912 31.504 22.3852 32.242 21.6052 32.83L24.3772 36.16H20.6512ZM14.2792 27.646C14.2792 28.762 14.5792 29.656 15.1792 30.328C15.7912 30.988 16.6072 31.318 17.6272 31.318C18.6352 31.318 19.4392 30.982 20.0392 30.31C20.6512 29.638 20.9572 28.75 20.9572 27.646C20.9572 26.53 20.6512 25.642 20.0392 24.982C19.4392 24.31 18.6352 23.974 17.6272 23.974C16.6072 23.974 15.7912 24.304 15.1792 24.964C14.5792 25.624 14.2792 26.518 14.2792 27.646ZM28.8607 21.364V28.924C28.8607 29.68 29.0467 30.262 29.4187 30.67C29.7907 31.078 30.3367 31.282 31.0567 31.282C31.7767 31.282 32.3287 31.078 32.7127 30.67C33.0967 30.262 33.2887 29.68 33.2887 28.924V21.364H36.3667V28.906C36.3667 30.034 36.1267 30.988 35.6467 31.768C35.1667 32.548 34.5187 33.136 33.7027 33.532C32.8987 33.928 31.9987 34.126 31.0027 34.126C30.0067 34.126 29.1127 33.934 28.3207 33.55C27.5407 33.154 26.9227 32.566 26.4667 31.786C26.0107 30.994 25.7827 30.034 25.7827 28.906V21.364H28.8607ZM41.6061 21.364V34H38.5281V21.364H41.6061ZM50.2807 34L47.6527 29.23H46.9147V34H43.8367V21.364H49.0027C49.9987 21.364 50.8447 21.538 51.5407 21.886C52.2487 22.234 52.7767 22.714 53.1247 23.326C53.4727 23.926 53.6467 24.598 53.6467 25.342C53.6467 26.182 53.4067 26.932 52.9267 27.592C52.4587 28.252 51.7627 28.72 50.8387 28.996L53.7547 34H50.2807ZM46.9147 27.052H48.8227C49.3867 27.052 49.8067 26.914 50.0827 26.638C50.3707 26.362 50.5147 25.972 50.5147 25.468C50.5147 24.988 50.3707 24.61 50.0827 24.334C49.8067 24.058 49.3867 23.92 48.8227 23.92H46.9147V27.052ZM66.4149 21.364L62.0409 29.824V34H58.9629V29.824L54.5889 21.364H58.0809L60.5289 26.656L62.9589 21.364H66.4149Z" fill="white"/>
</svg>
